<svg fill="#000" height="800" width="800" version="1.1" id="Layer_1" xmlns="http://www.w3.org/2000/svg" viewBox="0 0 512 512" xml:space="preserve"><path d="M278.988 179.722h-45.975c-15.892 0-30.515 7.985-39.118 21.361l13.181 8.478c5.706-8.87 15.402-14.166 25.936-14.166h45.975c10.535 0 20.23 5.296 25.936 14.166l13.181-8.478c-8.601-13.375-23.224-21.361-39.116-21.361zm-158.643-49.813c-4.937-4.937-11.496-7.656-18.468-7.656-14.404 0-26.122 11.719-26.122 26.122v6.896h15.673v-6.896c0-5.762 4.687-10.449 10.449-10.449 2.786 0 5.408 1.089 7.383 3.065a10.377 10.377 0 013.066 7.384v6.896H128v-6.896c0-6.971-2.719-13.53-7.655-18.466zm308.245 0c-4.937-4.937-11.496-7.656-18.468-7.656-14.404 0-26.122 11.719-26.122 26.122v6.896h15.673v-6.896c0-5.762 4.687-10.449 10.449-10.449 2.786 0 5.408 1.089 7.383 3.065a10.377 10.377 0 013.066 7.384v6.896h15.673v-6.896c.001-6.971-2.718-13.53-7.654-18.466zm-297.491 243.12L102.4 346.123v-71.315h42.559v-15.673H86.727v93.778l21.455 20.116H84.637v15.673h65.828v-15.673zm273.332 0l20.842-20.191v-93.703h-58.232v15.673H409.6v71.391l-27.695 26.83H360.49v15.673h65.828v-15.673z"/><path d="M464.98 218.384h-28.735v-35.095c16.302-2.1 31.307-6.153 43.688-11.932 20.68-9.65 32.067-23.192 32.067-38.133s-11.387-28.483-32.067-38.134c-18.777-8.763-43.57-13.589-69.811-13.589s-51.034 4.826-69.811 13.589c-20.68 9.651-32.067 23.193-32.067 38.134s11.387 28.483 32.067 38.134c12.381 5.778 27.387 9.831 43.688 11.932v35.094H128v-35.095c16.302-2.1 31.307-6.153 43.688-11.932 20.68-9.65 32.067-23.192 32.067-38.133s-11.387-28.483-32.067-38.134c-18.777-8.763-43.57-13.589-69.811-13.589S50.843 86.327 32.065 95.09C11.387 104.742 0 118.284 0 133.224s11.387 28.483 32.066 38.134c12.381 5.778 27.387 9.831 43.689 11.932v35.094H47.02v-24.555H0v64.784h47.02v-24.555h99.133l24.216 62.155c4.332 11.119 14.842 18.302 26.774 18.302h32.735v16.718h-39.184v99.265h130.612v-99.265h-39.184v-16.718h32.735c11.933 0 22.442-7.184 26.774-18.303l24.216-62.154h99.133v24.555H512v-64.784h-47.02v24.555zM31.347 242.939H15.673v-33.437h15.673v33.437zM15.673 133.224c0-17.051 35.403-36.049 86.204-36.049s86.204 18.998 86.204 36.049-35.403 36.049-86.204 36.049-86.204-18.998-86.204-36.049zm96.654 85.16H91.429v-33.701c3.45.171 6.935.264 10.449.264s6.999-.093 10.449-.264v33.701zm193.306 128.522v67.918h-99.265v-67.918h99.265zm-60.082-15.673v-16.718h20.898v16.718h-20.898zm81.477-40.712c-1.97 5.054-6.747 8.319-12.17 8.319H197.142c-5.424 0-10.201-3.265-12.171-8.319l-21.998-56.464h186.054l-21.999 56.464zm-3.11-157.297c0-17.051 35.403-36.049 86.204-36.049s86.204 18.998 86.204 36.049-35.403 36.049-86.204 36.049-86.204-18.998-86.204-36.049zm96.653 85.16h-20.898v-33.701c3.45.171 6.935.264 10.449.264 3.514 0 6.999-.093 10.449-.264v33.701zm60.082-8.882h15.673v33.437h-15.673v-33.437z"/><path d="M256 352.131c-15.844 0-28.735 12.89-28.735 28.735S240.156 409.6 256 409.6s28.735-12.89 28.735-28.735-12.891-28.734-28.735-28.734zm0 41.796c-7.202 0-13.061-5.859-13.061-13.061s5.859-13.061 13.061-13.061c7.203 0 13.061 5.859 13.061 13.061s-5.858 13.061-13.061 13.061z"/></svg>