<svg fill="#000" height="800" width="800" version="1.1" id="Layer_1" xmlns="http://www.w3.org/2000/svg" viewBox="0 0 480 480" xml:space="preserve"><path d="M280 344h-72c-4.424 0-8 3.576-8 8s3.576 8 8 8h72c4.424 0 8-3.576 8-8s-3.576-8-8-8z"/><path d="M424 112h-40V24c0-13.232-10.768-24-24-24h-32c-13.232 0-24 10.768-24 24v88H160V24c0-13.232-10.768-24-24-24h-32C90.768 0 80 10.768 80 24v88H56c-30.872 0-56 25.128-56 56v256c0 30.872 24.904 56 55.512 56h368C454.664 480 480 454.872 480 424V168c0-30.872-25.128-56-56-56zM320 24c0-4.416 3.584-8 8-8h32c4.416 0 8 3.584 8 8v48h-48V24zm0 64h48v24h-48V88zM96 24c0-4.416 3.584-8 8-8h32c4.416 0 8 3.584 8 8v48H96V24zm0 64h48v24H96V88zm368 104h-48c-4.424 0-8 3.576-8 8s3.576 8 8 8h48v29.192L401.752 315c-2.76 3.456-2.192 8.488 1.248 11.248 3.472 2.768 8.488 2.176 11.248-1.248L464 262.816V424c0 22.056-18.168 40-40.488 40h-368C33.728 464 16 446.056 16 424V261.8l44.96 53.008a127.862 127.862 0 0020.832 19.608 7.953 7.953 0 004.792 1.6 7.985 7.985 0 006.408-3.2c2.656-3.528 1.936-8.544-1.6-11.192a112.83 112.83 0 01-18.224-17.168L16 237.064V208h48c4.424 0 8-3.576 8-8s-3.576-8-8-8H16v-24c0-22.056 17.944-40 40-40h368c22.056 0 40 17.944 40 40v24z"/><path d="M239.512 148.096c-42.496 0-77.08 34.568-77.08 77.072 0 42.504 34.576 77.08 77.08 77.08s77.072-34.576 77.072-77.08-34.568-77.072-77.072-77.072zm0 138.144c-33.68 0-61.08-27.4-61.08-61.08 0-33.672 27.4-61.072 61.08-61.072 33.672 0 61.072 27.4 61.072 61.072 0 33.68-27.4 61.08-61.072 61.08z"/><path d="M256 208v-24h-32v24h-24v32h24v24h32v-24h24v-32zm-96 112h-32c-13.232 0-24 10.768-24 24v56c0 13.232 10.768 24 24 24h32c13.232 0 24-10.768 24-24v-56c0-13.232-10.768-24-24-24zm8 80c0 4.416-3.584 8-8 8h-32c-4.416 0-8-3.584-8-8v-8h48v8zm0-24h-48v-32c0-4.416 3.584-8 8-8h32c4.416 0 8 3.584 8 8v32zm188.584-56h-32C312.08 320 304 329.424 304 344v56c0 14.576 8.08 24 20.584 24h32C369.52 424 384 413.736 384 400v-56c0-13.736-14.48-24-27.416-24zM368 400c0 3.584-6.296 8-11.416 8h-32c-1.256 0-4.584 0-4.584-8v-8h48v8zm0-24h-48v-32c0-8 3.328-8 4.584-8h32c5.12 0 11.416 4.416 11.416 8v32z"/></svg>