<svg width="800" height="800" viewBox="0 0 100 100" xmlns="http://www.w3.org/2000/svg"><g id="snacks"><path d="M93 4.9c0-.1-.1-.2-.1-.2s0-.1-.1-.1l-.1-.1-.2-.2s-.1 0-.1-.1c-.1 0-.1-.1-.2-.1h-.3c-.1 0-.1 0-.2.1 0 0-.1 0-.1.1l-.1.1-.2.2-3.5 4.9-3.5-4.9c-.4-.5-1.3-.5-1.6 0l-3.5 4.9-3.5-4.9c-.4-.5-1.3-.5-1.6 0l-3.5 4.9-3.5-4.9c-.2-.4-.5-.6-.8-.6s-.6.2-.8.4L62 9.3l-3.5-4.9c-.4-.5-1.3-.5-1.6 0l-3.5 4.9L50 4.4c-.4-.5-1.3-.5-1.6 0l-3.5 4.9-3.5-4.9c-.2-.2-.5-.4-.8-.4-.3 0-.6.2-.8.4l-3.5 4.9-3.5-4.9c0-.1-.1-.1-.2-.2l-.1-.1h-.1c-.1 0-.2-.1-.3-.1h-.4c-.1 0-.1 0-.1.1-.1 0-.1 0-.2.1l-.1.1c0 .1-.1.1-.1.2v.1c0 .1-.1.2-.1.3-1.6 11.8-2.5 23.8-2.9 35.6-7.8.5-15.6 1.3-23.3 2.6h-.1c-.1 0-.1 0-.2.1-.1 0-.1.1-.2.1 0 0-.1 0-.1.1s-.1.1-.1.2-.1.1-.1.2v.2c-.1 0-.1 0-.1.1v.1c0 .1 0 .1.1.2 0 .1.1.1.1.2 0 0 0 .1.1.1l3.1 2.7-3.1 2.7c-.2.2-.3.5-.3.7s.1.6.3.8l3.1 2.7L4.3 57c-.2.1-.3.4-.3.7s.1.6.3.8l3.1 2.7-3.1 2.7c-.2.1-.3.4-.3.7s.1.6.3.8L7.5 68l-3.1 2.7c-.3.1-.4.4-.4.7s.1.6.3.8l3.1 2.7-3.1 2.7c-.2.1-.3.4-.3.7s.1.6.3.8l3.1 2.7-3.1 2.7c-.2.1-.3.3-.3.6s.1.6.3.8l3.1 2.7-3.1 2.7-.1.1c0 .1-.1.1-.1.2s-.1.1-.1.2c0 0 0 .1-.1.1.1.1.1.1.1.2v.2c0 .1 0 .1.1.2 0 .1.1.1.1.2 0 0 .1 0 .1.1l.2.2c.1 0 .1 0 .2.1 0 0 .1 0 .1.1 12.3 2 24.7 3 37.2 3 12.4 0 24.8-1 37.2-3 0 0 .1 0 .1-.1.1 0 .1 0 .2-.1.1 0 .1-.1.2-.2 0 0 .1 0 .1-.1s.1-.1.1-.2.1-.1.1-.2V92l2.6 3.6c.2.3.5.4.8.4.3 0 .6-.2.8-.4l3.5-4.9 3.5 4.9.3.3h.1c.1 0 .1.1.2.1h.1c.1 0 .2 0 .3-.1 0 0 .1 0 .1-.1 0 0 .1 0 .1-.1l.2-.2.1-.1c0-.1.1-.1.1-.2v-.1C97 65.2 97 34.8 93 4.9zm-55.9 6.7l3.5-4.9 3.5 4.9c.4.5 1.3.5 1.6 0l3.5-4.9 3.5 4.9c.2.3.5.4.8.4s.6-.2.8-.4l3.5-4.9 3.5 4.9c.2.3.5.4.8.4s.6-.2.8-.4l3.5-4.9 3.5 4.9c.4.5 1.3.5 1.6 0L75 6.7l3.5 4.9c.4.5 1.3.5 1.6 0l3.5-4.9 3.5 4.9c.4.5 1.3.5 1.6 0l2.8-3.9c.3 2.1.5 4.2.7 6.3H31.9c.2-2.1.5-4.2.7-6.3l2.8 3.9c.5.5 1.3.5 1.7 0zM31.7 16h60.6c2.3 22.6 2.3 45.4 0 68H79.2l-2.7-2.3 3.1-2.7c.2-.2.3-.5.3-.8s-.1-.6-.3-.8l-3.1-2.7 3.1-2.7c.2-.2.3-.5.3-.8s-.1-.6-.3-.8L76.5 68l3.1-2.7c.2-.2.3-.5.3-.8s-.1-.6-.3-.8L76.5 61l3.1-2.7c.2-.2.3-.5.3-.8s-.1-.6-.3-.8L76.5 54l3.1-2.7c.2-.2.3-.5.3-.8 0-.3-.1-.6-.3-.8L76.5 47l3.1-2.7c.1-.1.1-.2.2-.3v-.1c0-.1 0-.1.1-.2v-.4c0-.1 0-.1-.1-.2 0-.1-.1-.1-.1-.2l-.1-.1c-.1 0-.1-.1-.2-.1s-.1-.1-.2-.1c0 0-.1 0-.1-.1a237.1 237.1 0 00-49-2.7c.3-7.5.8-15.7 1.6-23.8zm42.6 73.3l2.3 2c-1.9.3-3.8.6-5.7.8V43.9c1.9.2 3.8.5 5.7.8l-2.3 2c-.2.2-.3.5-.3.8s.1.6.3.8l3.1 2.7-3.1 2.7c-.2 0-.3.3-.3.6s.1.6.3.8l3.1 2.7-3.1 2.7c-.2.2-.3.5-.3.8s.1.6.3.8l3.1 2.7-3.1 2.7c-.2-.1-.3.2-.3.5s.1.6.3.8l3.1 2.7-3.1 2.7c-.2.2-.3.5-.3.8s.1.6.3.8l3.1 2.7-3.1 2.5c-.2.2-.3.5-.3.8 0 .3.1.6.3.8l3.1 2.7-3.1 2.7c-.2 0-.3.3-.3.6s.1.5.3.7zm4.8 1.5l.1.1-.1-.1zm-69.4-3l-3.1-2.7 3.1-2.7c.2-.1.3-.4.3-.7 0-.3-.1-.6-.3-.8l-3.1-2.7 3.1-2.7c.2-.2.3-.5.3-.8s-.1-.6-.3-.8l-3.1-2.7 3.1-2.7c.2.1.3-.2.3-.5s-.1-.6-.3-.8l-3.1-2.7 3.1-2.7c.2-.2.3-.5.3-.8s-.1-.6-.3-.8l-3.1-2.7L9.7 55c.2-.2.3-.5.3-.8 0-.3-.1-.6-.3-.8l-3.1-2.7L9.7 48c.2 0 .3-.3.3-.6s-.1-.6-.3-.8l-2.3-2c1.9-.3 3.8-.6 5.7-.8v48.3c-1.9-.2-3.8-.5-5.7-.8l2.3-2c.2-.2.3-.5.3-.8s-.1-.5-.3-.7zm5.3 4.6V43.6c18-2.1 36-2.1 54 0v48.8c-18 2.1-36 2.1-54 0zM87.7 88c-.3 0-.6.2-.8.4l-3.5 4.9-3.5-4.9c-.2-.3-.5-.4-.8-.4-.3 0-.6.2-.8.4l-.7 1-1-.9 3-2.6h12.5c-.2 2.1-.5 4.2-.7 6.3l-2.8-3.9c-.3-.1-.6-.3-.9-.3z"/><path d="M42 50c-9.9 0-18 8.1-18 18s8.1 18 18 18 18-8.1 18-18-8.1-18-18-18zm0 34c-8.8 0-16-7.2-16-16s7.2-16 16-16 16 7.2 16 16-7.2 16-16 16z"/></g></svg>