<?xml version="1.0" encoding="utf-8"?>
<!-- Uploaded to: SVG Repo, www.svgrepo.com, Generator: SVG Repo Mixer Tools -->
<svg width="800px" height="800px" viewBox="0 -5.19 84.333 84.333" xmlns="http://www.w3.org/2000/svg">
  <g id="Group_115" data-name="Group 115" transform="translate(-186.187 -268.182)">
    <g id="Group_46" data-name="Group 46">
      <g id="Group_45" data-name="Group 45">
        <path id="Path_25" data-name="Path 25" d="M270.035,303.453,257.919,283.8a3.352,3.352,0,0,0-1.167-1.077l-4.936-2.244h0l-12.744-5.564a15.462,15.462,0,0,1-2.334-3.231c-.359-2.244-4.308-3.5-8.347-3.5-3.949,0-7.988,1.167-8.347,3.5a18.266,18.266,0,0,1-2.333,3.231l-12.654,5.654h0l-5.026,2.244a2.727,2.727,0,0,0-1.167,1.077l-12.116,19.565a3.241,3.241,0,0,0-.538,2.244l1.616,17.052a3.264,3.264,0,0,0,.628,1.526l.718,5.116a.889.889,0,0,0,.987.718,33.409,33.409,0,0,1,7.808,0h.18a.873.873,0,0,0,.9-.718l.808-4.936h0a3.783,3.783,0,0,0,.9-2.334l.359-19.924,2.692.359c-.09,4.039-.449,21.988,1.436,30.694l.9,8.077a.955.955,0,0,0,.9.808h42.541a.953.953,0,0,0,.9-.808l.808-7.718a.467.467,0,0,0,.18-.359c1.885-8.706,1.526-26.655,1.436-30.784l2.6-.359.359,19.924a4.033,4.033,0,0,0,.9,2.423l.808,4.936a.874.874,0,0,0,.9.718h.18a33.63,33.63,0,0,1,7.808,0,.889.889,0,0,0,.987-.718l.718-5.116a2.546,2.546,0,0,0,.628-1.526l1.616-17.052A2.556,2.556,0,0,0,270.035,303.453ZM263.842,322.3a17.512,17.512,0,0,0-5.923.539,2.616,2.616,0,0,1-.18-.808l-.359-20.911v-3.231a.9.9,0,0,0-1.8,0v2.423l-3.59.449c-.18-.09-1.526-.718-2.064-5.834a24.2,24.2,0,0,1,.718-8.616l3.68,1.8,11.039,17.232Zm-14.36-38.412-11.488-5.475c.449-.539.718-1.077.987-1.436l11.308,4.936A8.893,8.893,0,0,0,249.482,283.888Zm-18.218-3.41-.18-1.167a2.234,2.234,0,0,0-1.346-1.615v-1.8c2.513-.18,4.936-.808,6.1-1.974a9.135,9.135,0,0,0,1.615,2.064A8.925,8.925,0,0,1,231.264,280.478Zm-3.5,2.154.538-3.052c0-.179.269-.359.449-.359s.449.18.449.359l.538,3.052Zm.629-12.565c4.039,0,6.552,1.257,6.552,1.974s-2.513,1.974-6.552,1.974-6.552-1.256-6.552-1.974S224.353,270.067,228.392,270.067Zm-7.45,3.769c1.346,1.257,4.128,1.885,7,1.975v1.8a2.234,2.234,0,0,0-1.346,1.615l-.269,1.346a9.079,9.079,0,0,1-7-4.667A9.108,9.108,0,0,0,220.942,273.836Zm-14.09,21.271c-.538,5.116-1.885,5.744-2.064,5.834l-3.59-.449v-2.423a.9.9,0,0,0-1.795,0V301.3l-.359,20.911a2.616,2.616,0,0,1-.18.808,15.987,15.987,0,0,0-6.013-.539l-1.526-16.962,11.039-17.232,3.77-1.8A24.008,24.008,0,0,1,206.852,295.107Zm.269,38.95h16.962V336.3H207.39Zm10.68-57.169a9.069,9.069,0,0,0,.9,1.436L207.21,283.8c-.269-.808-.538-1.526-.718-2.064ZM188.274,304.44l12.116-19.655a.894.894,0,0,1,.449-.359l4.128-1.885c.18.539.449,1.257.718,2.154l-4.308,2.064a.706.706,0,0,0-.359.359L189.62,304.8a1.276,1.276,0,0,0-.18.538l1.526,17.142q-.807.135-1.346.269c0-.09-.09-.18-.09-.269L188,305.606A2.489,2.489,0,0,1,188.274,304.44Zm9.154,23.784a39.1,39.1,0,0,0-6.552,0l-.538-3.769a16.677,16.677,0,0,1,7.718,0Zm10.411,12.206-.269-2.244h16.514v2.244Zm18.04-7.27a.848.848,0,0,0-.9-.9H206.853c-1.705-8.8-1.346-26.117-1.256-29.8.18-.09.269-.18.449-.269,1.257-.987,2.154-3.321,2.513-6.911a27.679,27.679,0,0,0-.9-9.693l12.206-5.834h0a11.754,11.754,0,0,0,5.923,2.693l-.18.987a.7.7,0,0,0,.18.718,1.107,1.107,0,0,0,.718.359h1.257v56h-1.975V333.16h.088Zm5.833,0v7.27h-1.975v-56h1.257a.818.818,0,0,0,.718-.359.7.7,0,0,0,.18-.718l-.18-1.167a11.386,11.386,0,0,0,5.116-2.513h0l12.206,5.923h0a27.46,27.46,0,0,0-.9,9.693c.449,3.59,1.257,5.923,2.513,6.911.179.09.359.269.449.269.09,3.59.449,21-1.257,29.8H232.61A.9.9,0,0,0,231.712,333.16Zm1.795,3.141v-2.244h15.975l-.269,2.244Zm0,4.129v-2.244h15.527l-.269,2.244Zm25.848-12.206-.628-3.68a15.623,15.623,0,0,1,7.718,0l-.539,3.769A30.328,30.328,0,0,0,259.355,328.224Zm7.808-5.654a.328.328,0,0,1-.09.269,14.119,14.119,0,0,0-1.436-.269l1.526-17.142a.659.659,0,0,0-.18-.539l-11.219-17.77a.7.7,0,0,0-.359-.359l-4.218-2.064c.269-.9.538-1.616.718-2.154l4.128,1.885a.9.9,0,0,1,.449.359L268.6,304.441a2.491,2.491,0,0,1,.269,1.167Z" fill="#1e1e1c"/>
      </g>
    </g>
  </g>
</svg>