<?xml version="1.0" encoding="iso-8859-1"?>
<!-- Uploaded to: SVG Repo, www.svgrepo.com, Generator: SVG Repo Mixer Tools -->
<svg fill="#000000" height="800px" width="800px" version="1.1" id="Layer_1" xmlns="http://www.w3.org/2000/svg" xmlns:xlink="http://www.w3.org/1999/xlink" 
	 viewBox="0 0 480 480" xml:space="preserve">
<g>
	<g>
		<path d="M280,344h-72c-4.424,0-8,3.576-8,8s3.576,8,8,8h72c4.424,0,8-3.576,8-8S284.424,344,280,344z"/>
	</g>
</g>
<g>
	<g>
		<path d="M424,112h-40V80V24c0-13.232-10.768-24-24-24h-32c-13.232,0-24,10.768-24,24v56v32H160V80V24c0-13.232-10.768-24-24-24
			h-32C90.768,0,80,10.768,80,24v56v32H56c-30.872,0-56,25.128-56,56v72v184c0,30.872,24.904,56,55.512,56h368
			C454.664,480,480,454.872,480,424V240v-72C480,137.128,454.872,112,424,112z M320,24c0-4.416,3.584-8,8-8h32c4.416,0,8,3.584,8,8
			v48h-48V24z M320,88h48v24h-48V88z M96,24c0-4.416,3.584-8,8-8h32c4.416,0,8,3.584,8,8v48H96V24z M96,88h48v24H96V88z M464,192
			h-48c-4.424,0-8,3.576-8,8s3.576,8,8,8h48v29.192L401.752,315c-2.76,3.456-2.192,8.488,1.248,11.248
			c3.472,2.768,8.488,2.176,11.248-1.248L464,262.816V424c0,22.056-18.168,40-40.488,40h-368C33.728,464,16,446.056,16,424V261.8
			l44.96,53.008c6.192,7.296,13.2,13.896,20.832,19.608c1.44,1.08,3.12,1.6,4.792,1.6c2.44,0,4.832-1.104,6.408-3.2
			c2.656-3.528,1.936-8.544-1.6-11.192c-6.664-5-12.8-10.784-18.224-17.168L16,237.064V208h48c4.424,0,8-3.576,8-8s-3.576-8-8-8H16
			v-24c0-22.056,17.944-40,40-40h32h64h160h64h48c22.056,0,40,17.944,40,40V192z"/>
	</g>
</g>
<g>
	<g>
		<path d="M239.512,148.096c-42.496,0-77.08,34.568-77.08,77.072c0,42.504,34.576,77.08,77.08,77.08
			c42.504,0,77.072-34.576,77.072-77.08S282.016,148.096,239.512,148.096z M239.512,286.24c-33.68,0-61.08-27.4-61.08-61.08
			c0-33.672,27.4-61.072,61.08-61.072c33.672,0,61.072,27.4,61.072,61.072C300.584,258.84,273.184,286.24,239.512,286.24z"/>
	</g>
</g>
<g>
	<g>
		<polygon points="256,208 256,184 224,184 224,208 200,208 200,240 224,240 224,264 256,264 256,240 280,240 280,208 		"/>
	</g>
</g>
<g>
	<g>
		<path d="M160,320h-32c-13.232,0-24,10.768-24,24v40v16c0,13.232,10.768,24,24,24h32c13.232,0,24-10.768,24-24v-16v-40
			C184,330.768,173.232,320,160,320z M168,400c0,4.416-3.584,8-8,8h-32c-4.416,0-8-3.584-8-8v-8h48V400z M168,376h-48v-32
			c0-4.416,3.584-8,8-8h32c4.416,0,8,3.584,8,8V376z"/>
	</g>
</g>
<g>
	<g>
		<path d="M356.584,320h-32C312.08,320,304,329.424,304,344v40v16c0,14.576,8.08,24,20.584,24h32C369.52,424,384,413.736,384,400
			v-16v-40C384,330.264,369.52,320,356.584,320z M368,400c0,3.584-6.296,8-11.416,8h-32c-1.256,0-4.584,0-4.584-8v-8h48V400z
			 M368,376h-48v-32c0-8,3.328-8,4.584-8h32c5.12,0,11.416,4.416,11.416,8V376z"/>
	</g>
</g>
</svg>