<?xml version="1.0" ?>
<!-- Uploaded to: SVG Repo, www.svgrepo.com, Generator: SVG Repo Mixer Tools -->
<svg fill="#000000" width="800px" height="800px" viewBox="0 0 100 100" version="1.1" xml:space="preserve" xmlns="http://www.w3.org/2000/svg" xmlns:xlink="http://www.w3.org/1999/xlink">
<g id="store"/>
<g id="groceries"/>
<g id="fruits"/>
<g id="bakery"/>
<g id="hygiene_product">
<g>
<path d="M91,26h-3v-5c0-1.7-1.3-3-3-3h-3v-6h5c0.6,0,1-0.4,1-1V5c0-0.6-0.4-1-1-1H45c-0.6,0-1,0.4-1,1v6c0,0.6,0.4,1,1,1h1v3    c0,0.6,0.4,1,1,1h6c0.6,0,1-0.4,1-1v-3h18v6h-3c-1.7,0-3,1.3-3,3v5h-3c-2.8,0-5,2.2-5,5v16c-0.8-0.6-1.9-1-3-1v-3c0-0.6-0.4-1-1-1    h-2v-7c0-2.8-2.2-5-5-5h-6c-2.8,0-5,2.2-5,5v7h-2c-0.6,0-1,0.4-1,1v3c-2.8,0-5,2.2-5,5v25H13c-3.3,0-6,2.7-6,6    c0,1.5,0.6,2.9,1.5,4H5c-0.6,0-1,0.4-1,1c0,2.8,2.2,5,5,5v3c0,0.6,0.4,1,1,1h30h15c1.6,0,3.1-0.8,4-2c0.9,1.2,2.4,2,4,2h28    c2.8,0,5-2.2,5-5V31C96,28.2,93.8,26,91,26z M46,6h40v4h-5h-8H53h-6h-1V6z M52,14h-4v-2h4V14z M74,12h6v6h-6V12z M68,21    c0-0.6,0.4-1,1-1h4h8h4c0.6,0,1,0.4,1,1v5H68V21z M41,32h6c1.7,0,3,1.3,3,3v2h-1.1c-0.5-2.3-2.5-4-4.9-4s-4.4,1.7-4.9,4H38v-2    C38,33.3,39.3,32,41,32z M46.8,37h-5.6c0.4-1.2,1.5-2,2.8-2S46.4,35.8,46.8,37z M38,39h12v3H38V39z M35,44h2h14h2v2H35V44z M9,82    c0-2.2,1.8-4,4-4h24c2.2,0,4,1.8,4,4s-1.8,4-4,4h-3H13C10.8,86,9,84.2,9,82z M45,86h-3.5c1-1.1,1.5-2.5,1.5-4c0-3.3-2.7-6-6-6h-2    V65c0-5,4-9,9-9c2.4,0,4.7,0.9,6.4,2.6c1.7,1.7,2.6,4,2.6,6.4v21H45z M6.2,88H13h21h3h6.8c-0.4,1.2-1.5,2-2.8,2h-1H10H9    C7.7,90,6.6,89.2,6.2,88z M11,92h28v2H11V92z M55,94H41v-2c2.4,0,4.4-1.7,4.9-4H54c0.6,0,1-0.4,1-1V65c0-2.9-1.1-5.7-3.2-7.8    C49.7,55.1,46.9,54,44,54c-6.1,0-11,4.9-11,11v11h-3V51c0-1.7,1.3-3,3-3h1h20h1c1.7,0,3,1.3,3,3v40C58,92.7,56.7,94,55,94z M94,91    c0,1.7-1.3,3-3,3H63c-1.7,0-3-1.3-3-3V51V31c0-1.7,1.3-3,3-3h4h20h4c1.7,0,3,1.3,3,3V91z"/>
<path d="M77,36c-7.2,0-13,5.8-13,13v36c0,0.6,0.4,1,1,1h24c0.6,0,1-0.4,1-1V49C90,41.8,84.2,36,77,36z M88,84H66V49    c0-6.1,4.9-11,11-11s11,4.9,11,11V84z"/>
</g>
</g>
<g id="detergent"/>
<g id="cooking_oil"/>
<g id="snacks"/>
<g id="canned_food"/>
<g id="wheat_flour"/>
<g id="milk_powder"/>
<g id="coffee_powder"/>
<g id="tea_bag"/>
<g id="meat"/>
<g id="chicken"/>
<g id="cart"/>
<g id="sausage"/>
<g id="egg"/>
<g id="drink"/>
<g id="vegetable"/>
</svg>